<?xml version="1.0" encoding="UTF-8" standalone="no"?>
<!-- Created with Inkscape (http://www.inkscape.org/) -->

<svg
   xmlns:dc="http://purl.org/dc/elements/1.1/"
   xmlns:cc="http://creativecommons.org/ns#"
   xmlns:rdf="http://www.w3.org/1999/02/22-rdf-syntax-ns#"
   xmlns:svg="http://www.w3.org/2000/svg"
   xmlns="http://www.w3.org/2000/svg"
   xmlns:sodipodi="http://sodipodi.sourceforge.net/DTD/sodipodi-0.dtd"
   xmlns:inkscape="http://www.inkscape.org/namespaces/inkscape"
   width="50"
   height="50"
   viewBox="0 0 13.229166 13.229166"
   version="1.1"
   id="svg8"
   inkscape:export-filename="C:\Users\User\Documents\GitHub\Yoberon\e_interact.png"
   inkscape:export-xdpi="96"
   inkscape:export-ydpi="96"
   inkscape:version="0.92.4 (5da689c313, 2019-01-14)"
   sodipodi:docname="m.svg">
  <defs
     id="defs2" />
  <sodipodi:namedview
     id="base"
     pagecolor="#ffffff"
     bordercolor="#666666"
     borderopacity="1.0"
     inkscape:pageopacity="0.0"
     inkscape:pageshadow="2"
     inkscape:zoom="11.2"
     inkscape:cx="-8.6982727"
     inkscape:cy="27.349223"
     inkscape:document-units="mm"
     inkscape:current-layer="layer1"
     showgrid="false"
     units="px"
     inkscape:pagecheckerboard="true"
     inkscape:window-width="1920"
     inkscape:window-height="1017"
     inkscape:window-x="1912"
     inkscape:window-y="-8"
     inkscape:window-maximized="1" />
  <metadata
     id="metadata5">
    <rdf:RDF>
      <cc:Work
         rdf:about="">
        <dc:format>image/svg+xml</dc:format>
        <dc:type
           rdf:resource="http://purl.org/dc/dcmitype/StillImage" />
        <dc:title />
      </cc:Work>
    </rdf:RDF>
  </metadata>
  <g
     inkscape:label="Layer 1"
     inkscape:groupmode="layer"
     id="layer1"
     transform="translate(0,-283.77084)">
    <rect
       style="fill:#666666;stroke-width:0.33247668"
       id="rect1083"
       width="13.229167"
       height="13.229167"
       x="-1.5894572e-07"
       y="283.77084"
       ry="4.6424379"
       rx="0" />
    <rect
       style="fill:#808080;stroke-width:0.26458332;stroke-miterlimit:4;stroke-dasharray:none"
       id="rect1117"
       width="10.583333"
       height="10.583333"
       x="1.3229169"
       y="285.09375"
       ry="5.2916665"
       rx="0" />
    <path
       style="fill:none;stroke:#000000;stroke-width:0.13229167;stroke-linecap:butt;stroke-linejoin:miter;stroke-opacity:1;stroke-miterlimit:4;stroke-dasharray:none"
       d="M -1.5894572e-7,283.77084 V 297 H 13.229167 V 283.77084 H -1.5894572e-7"
       id="path1137"
       inkscape:connector-curvature="0" />
    <path
       style="fill:none;stroke:#000000;stroke-width:0.13229167;stroke-linecap:butt;stroke-linejoin:miter;stroke-opacity:1;stroke-miterlimit:4;stroke-dasharray:none"
       d="M -1.5894572e-7,297 1.3229169,295.67709 V 285.09375 L -1.5894572e-7,283.77084"
       id="path1139"
       inkscape:connector-curvature="0" />
    <path
       style="fill:none;stroke:#000000;stroke-width:0.13229167;stroke-linecap:butt;stroke-linejoin:miter;stroke-opacity:1;stroke-miterlimit:4;stroke-dasharray:none"
       d="M 13.229167,297 11.90625,295.67709 H 1.3229169"
       id="path1141"
       inkscape:connector-curvature="0" />
    <path
       style="fill:none;stroke:#000000;stroke-width:0.13229167;stroke-linecap:butt;stroke-linejoin:miter;stroke-opacity:1;stroke-miterlimit:4;stroke-dasharray:none"
       d="M 1.3229169,285.09375 H 11.90625 l 1.322917,-1.32291"
       id="path1143"
       inkscape:connector-curvature="0" />
    <path
       style="fill:none;stroke:#000000;stroke-width:0.13229167;stroke-linecap:butt;stroke-linejoin:miter;stroke-opacity:1;stroke-miterlimit:4;stroke-dasharray:none"
       d="m 11.90625,285.09375 v 10.58334"
       id="path1145"
       inkscape:connector-curvature="0" />
    <g
       aria-label="M"
       transform="scale(1.2320061,0.8116843)"
       style="font-style:normal;font-variant:normal;font-weight:normal;font-stretch:normal;font-size:12.34722233px;line-height:1.25;font-family:'Courier Prime';-inkscape-font-specification:'Courier Prime, Normal';font-variant-ligatures:normal;font-variant-caps:normal;font-variant-numeric:normal;font-feature-settings:normal;text-align:center;letter-spacing:0px;word-spacing:0px;writing-mode:lr-tb;text-anchor:middle;fill:#ffffff;fill-opacity:1;stroke:none;stroke-width:0.05157697"
       id="text825">
      <path
         d="m 8.3291515,354.17845 q 0.2049832,0 0.2893881,0.0965 0.090434,0.0904 0.090434,0.3135 0,0.22307 -0.090434,0.31953 -0.084405,0.0904 -0.2893881,0.0904 H 8.0277057 l 0.1567518,5.51646 h 0.3255616 q 0.2049831,0 0.289388,0.0965 0.090434,0.0904 0.090434,0.3135 0,0.22307 -0.090434,0.31953 -0.084405,0.0904 -0.289388,0.0904 h -1.89308 q -0.2049832,0 -0.295417,-0.0904 -0.084405,-0.0965 -0.084405,-0.31953 0,-0.22307 0.084405,-0.3135 0.090434,-0.0965 0.295417,-0.0965 h 0.6692098 l -0.1326362,-4.93769 -1.2298991,3.43648 q -0.078376,0.21102 -0.2110121,0.30145 -0.1266073,0.0904 -0.3436483,0.0904 -0.217041,0 -0.3496772,-0.0904 -0.1266072,-0.0904 -0.2049832,-0.30145 l -1.235928,-3.43648 -0.1266072,4.93769 h 0.6692098 q 0.2049832,0 0.289388,0.0965 0.090434,0.0904 0.090434,0.3135 0,0.22307 -0.090434,0.31953 -0.084405,0.0904 -0.289388,0.0904 h -1.89308 q -0.2049832,0 -0.2954169,-0.0904 -0.084405,-0.0965 -0.084405,-0.31953 0,-0.22307 0.084405,-0.3135 0.090434,-0.0965 0.2954169,-0.0965 h 0.3255615 l 0.1507229,-5.51646 H 2.4087549 q -0.2049832,0 -0.2954169,-0.0904 -0.084405,-0.0965 -0.084405,-0.31953 0,-0.22307 0.084405,-0.3135 0.090434,-0.0965 0.2954169,-0.0965 h 1.2721015 q 0.144694,0 0.2290989,0.0482 0.084405,0.0482 0.1205783,0.15073 l 1.3384196,3.67161 1.3323907,-3.67161 q 0.066318,-0.19896 0.3557061,-0.19896 z"
         style="font-style:normal;font-variant:normal;font-weight:normal;font-stretch:normal;font-size:12.34722233px;font-family:'Courier Prime';-inkscape-font-specification:'Courier Prime, Normal';font-variant-ligatures:normal;font-variant-caps:normal;font-variant-numeric:normal;font-feature-settings:normal;text-align:center;writing-mode:lr-tb;text-anchor:middle;stroke-width:0.05157697"
         id="path821" />
    </g>
  </g>
</svg>
